<?xml version="1.0" encoding="UTF-8"?><svg xmlns="http://www.w3.org/2000/svg" viewBox="0 0 1428.64 377.53"><defs><style>.d,.e{fill:#fff;}.e{fill-rule:evenodd;}</style></defs><g id="a"/><g id="b"><g id="c"><g><path class="d" d="M908.03,113.49c44.8,0,75.38,25.24,75.38,61.87,0,29.86-18.13,51.55-53.33,77.86l-114.84,87.11h132.97l-6.75,25.6h-177.06l5.69-22.04,142.57-108.09c27.38-20.62,41.6-37.33,41.6-58.66s-17.42-38.04-47.29-38.04c-27.73,0-49.78,15.29-68.26,34.13l-18.49-17.78c22.4-23.82,50.49-41.95,87.82-41.95m0-10.1c-35.49,0-66.62,14.76-95.18,45.14l-6.84,7.28,7.2,6.92,18.49,17.78,7.21,6.93,7-7.14c20.82-21.22,40.22-31.1,61.05-31.1,22.94,0,37.18,10.71,37.18,27.94,0,16.04-10.53,30.23-37.57,50.59l-142.6,108.1-2.8,2.12-.88,3.4-5.69,22.04-3.26,12.63h197.89l1.99-7.53,6.75-25.6,3.35-12.68h-116.05l90.88-68.93c34.43-25.74,57.36-50.21,57.36-85.94,0-42.37-35.15-71.97-85.48-71.97h0Z"/><path class="d" d="M1221.62,16.63l-7.22,25.11h-109.71l-25.45,75.66c9.97-4.82,28.55-9.29,41.27-9.29,45.74,0,76.01,26.14,76.01,67.75,0,45.74-39.9,85.64-100.43,85.64-39.21,0-67.41-19.26-83.23-42.99l20.98-15.48c15.48,21.32,35.42,34.05,64.31,34.05,42.3,0,69.82-28.2,69.82-59.16,0-28.89-22.01-46.09-54-46.09-14.79,0-32.67,4.13-49.18,13.07l-15.48-12.38,37.83-115.9h134.48m12.98-9.77h-154.55l-2.2,6.74-37.83,115.9-2.1,6.44,5.29,4.23,15.48,12.38,5.06,4.05,5.7-3.09c13.95-7.56,30.18-11.89,44.53-11.89,13.6,0,24.92,3.44,32.74,9.95,7.62,6.34,11.48,15.22,11.48,26.37,0,12.72-5.61,24.77-15.8,33.91-11.12,9.98-26.83,15.47-44.24,15.47-23.62,0-41.54-9.54-56.4-30.02l-5.79-7.97-7.93,5.85-20.98,15.48-7.5,5.53,5.17,7.75c20.06,30.09,53.36,47.34,91.36,47.34,30.93,0,59.13-10,79.43-28.15,19.84-17.75,30.77-41.64,30.77-67.26,0-23.2-8.35-42.85-24.15-56.81-15.34-13.56-36.65-20.72-61.63-20.72-7.45,0-16.82,1.35-25.73,3.52l16.94-50.35h110.05l2.03-7.07,7.22-25.11,3.59-12.47h0Z"/><g><path class="d" d="M1090.69,298.98h-3.83l-1.12,6.37h3.83c1.13,0,2.03-.28,2.7-.83,.66-.55,1.09-1.34,1.28-2.35,.05-.39,.07-.64,.07-.76,0-.77-.25-1.37-.74-1.79-.49-.42-1.22-.63-2.19-.63Z"/><path class="d" d="M1144.88,299.23c-1.59,0-3,.41-4.21,1.23-1.22,.82-2.16,1.91-2.82,3.27-.66,1.36-.99,2.86-.99,4.5,0,1.74,.48,3.11,1.45,4.11s2.33,1.5,4.09,1.5c1.59,0,2.99-.41,4.2-1.23,1.21-.82,2.14-1.92,2.8-3.31,.66-1.39,.99-2.89,.99-4.5,0-1.74-.48-3.1-1.45-4.09-.96-.99-2.32-1.48-4.05-1.48Z"/><path class="d" d="M992.89,284l-11.58,43.07h204.13l11.58-43.07h-204.13Zm28.85,35.31h-6.19l1.52-8.39-5.82-17h7.02l3.04,10.6,6.76-10.6h6.95l-11.76,17-1.52,8.39Zm26.12,0h-15.56l4.49-25.4h15.56l-.87,4.88h-9.37l-.91,5.28h8.29l-.83,4.67h-8.29l-1.01,5.68h9.37l-.87,4.88Zm20.62,0l-.72-4.49h-9.48l-2.32,4.49h-6.48l13.67-25.4h7.16l4.7,25.4h-6.55Zm31.4-17.4c-.29,1.69-1.03,3.2-2.21,4.52-1.18,1.33-2.76,2.27-4.74,2.82l4.09,10.06h-6.98l-3.58-9.59h-1.48l-1.7,9.59h-6.19l4.49-25.4h10.38c2.63,0,4.63,.6,6,1.79,1.38,1.19,2.06,2.74,2.06,4.65,0,.55-.05,1.07-.14,1.56Zm21.2-.76h-6.58c.02-.1,.04-.24,.04-.43,0-.67-.23-1.22-.71-1.65s-1.12-.63-1.94-.63c-.87,0-1.57,.21-2.12,.63s-.81,.99-.81,1.72,.34,1.33,1.01,1.83c.67,.49,1.72,1.07,3.15,1.72,1.42,.65,2.59,1.25,3.49,1.81,.91,.55,1.68,1.3,2.33,2.22,.65,.93,.98,2.07,.98,3.42,0,1.5-.4,2.83-1.19,4.02s-1.94,2.1-3.44,2.77-3.24,.99-5.25,.99c-2.75,0-4.99-.6-6.71-1.79-1.72-1.19-2.59-2.89-2.59-5.08,0-.22,.02-.54,.07-.98h6.44c-.07,.92,.15,1.64,.65,2.17,.51,.53,1.28,.8,2.32,.8,.94,0,1.68-.2,2.22-.61,.54-.41,.81-.99,.81-1.74s-.34-1.4-1.03-1.88-1.75-1.02-3.2-1.63c-1.4-.58-2.54-1.13-3.42-1.65-.88-.52-1.65-1.22-2.3-2.12-.65-.89-.98-2.01-.98-3.36-.02-1.66,.39-3.11,1.23-4.34,.84-1.23,2.01-2.17,3.51-2.82,1.5-.65,3.21-.98,5.14-.98,1.74,0,3.28,.27,4.63,.81,1.35,.54,2.4,1.33,3.15,2.35,.75,1.03,1.12,2.24,1.12,3.64,0,.36-.01,.63-.04,.8Zm33.54,10.94c-1.28,2.35-3.06,4.18-5.35,5.5-2.29,1.32-4.9,1.97-7.81,1.97-2.15,0-4.03-.45-5.66-1.34s-2.89-2.15-3.78-3.76c-.89-1.62-1.34-3.47-1.34-5.57,0-2.97,.64-5.61,1.92-7.94,1.28-2.33,3.06-4.14,5.34-5.44,2.28-1.3,4.87-1.95,7.76-1.95,2.17,0,4.08,.44,5.72,1.32,1.64,.88,2.91,2.12,3.8,3.73,.89,1.6,1.34,3.44,1.34,5.52,0,2.97-.64,5.63-1.92,7.98Zm22.61-13.29h-10.35l-.94,5.46h7.74l-.87,4.7h-7.74l-1.81,10.35h-6.19l4.49-25.4h16.53l-.87,4.88Z"/><polygon class="d" points="1060.7 310.12 1067.03 310.12 1065.54 300.71 1060.7 310.12"/></g><g><path class="d" d="M912.89,22.3h-3.83l-1.12,6.37h3.83c1.13,0,2.03-.28,2.7-.83,.66-.55,1.09-1.34,1.28-2.35,.05-.39,.07-.64,.07-.76,0-.77-.25-1.37-.74-1.79-.49-.42-1.22-.63-2.19-.63Z"/><polygon class="d" points="931.7 33.44 938.03 33.44 936.55 24.04 931.7 33.44"/><path class="d" d="M890.82,32.59c-.51-.4-1.21-.6-2.1-.6h-4.49l-1.01,5.72h4.56c1.06,0,1.9-.24,2.53-.72,.63-.48,1.02-1.18,1.19-2.1,.05-.29,.07-.51,.07-.65,0-.7-.25-1.25-.76-1.65Z"/><path class="d" d="M890.03,22.12h-4.05l-.94,5.43h4.02c1.04,0,1.87-.23,2.5-.69s1.01-1.12,1.16-1.99c.02-.14,.04-.34,.04-.58,0-.7-.23-1.24-.69-1.61s-1.13-.56-2.03-.56Z"/><path class="d" d="M779.24,7.33l-11.58,43.07h277.08l13.49-43.07h-279Zm24.62,28.36c.94,.99,2.23,1.48,3.87,1.48,1.18,0,2.29-.28,3.31-.83,1.02-.55,1.89-1.35,2.59-2.39h6.8c-1.21,2.75-3.03,4.92-5.46,6.49-2.44,1.58-5.16,2.37-8.18,2.37-2.17,0-4.06-.42-5.68-1.27-1.62-.84-2.86-2.04-3.73-3.58-.87-1.54-1.3-3.34-1.3-5.39,0-.92,.08-1.81,.25-2.68,.43-2.51,1.37-4.74,2.8-6.71,1.43-1.97,3.21-3.5,5.34-4.59s4.41-1.65,6.87-1.65c3.01,0,5.46,.8,7.33,2.39s2.92,3.76,3.17,6.51h-6.8c-.31-1.04-.89-1.83-1.72-2.37s-1.85-.81-3.06-.81c-1.91,0-3.56,.66-4.96,1.97-1.4,1.32-2.29,3.07-2.68,5.26-.12,.68-.18,1.27-.18,1.77,0,1.69,.47,3.03,1.41,4.01Zm34.51,2.06l-.87,4.88h-15.56l4.49-25.4h15.56l-.87,4.88h-9.37l-.91,5.28h8.29l-.83,4.67h-8.29l-1.01,5.68h9.37Zm16.71,4.88h-14.29l4.49-25.4h6.19l-3.65,20.69h8.1l-.83,4.7Zm18.67-4.88l-.87,4.88h-15.56l4.49-25.4h15.56l-.87,4.88h-9.37l-.91,5.28h8.29l-.83,4.67h-8.29l-1.01,5.68h9.37Zm22.97-6.37c.7,.92,1.05,1.99,1.05,3.22,0,.39-.04,.76-.11,1.12-.36,2.12-1.4,3.8-3.11,5.05-1.71,1.24-3.9,1.86-6.55,1.86h-11.83l4.49-25.4h11.43c2.29,0,4.06,.47,5.32,1.41,1.25,.94,1.88,2.24,1.88,3.91,0,.41-.04,.83-.11,1.27-.27,1.5-.88,2.74-1.84,3.73-.97,.99-2.12,1.68-3.47,2.06,1.21,.27,2.16,.86,2.86,1.77Zm22.5,11.25h-6.98l-3.58-9.59h-1.48l-1.7,9.59h-6.19l4.49-25.4h10.38c2.63,0,4.63,.6,6,1.79,1.38,1.19,2.06,2.74,2.06,4.65,0,.55-.05,1.07-.14,1.56-.29,1.69-1.03,3.2-2.21,4.52-1.18,1.33-2.76,2.27-4.74,2.82l4.09,10.06Zm20.26,0l-.72-4.49h-9.48l-2.32,4.49h-6.48l13.67-25.4h7.16l4.7,25.4h-6.55Zm20.15,0h-6.19l3.62-20.51h-6.73l.87-4.88h19.64l-.83,4.88h-6.76l-3.62,20.51Zm9.12,0l4.49-25.4h6.19l-4.49,25.4h-6.19Zm32.67,0h-6.19l-7.56-15.66-2.79,15.66h-6.19l4.49-25.4h6.19l7.56,15.74,2.79-15.74h6.19l-4.49,25.4Zm12.66-6.73c1.04,.96,2.51,1.45,4.41,1.45,1.54,0,2.91-.39,4.09-1.18,1.18-.78,2.13-1.9,2.86-3.35h-7.81l.76-4.52h13.46l-1.01,5.75c-.72,1.54-1.75,2.98-3.09,4.31-1.34,1.33-2.92,2.4-4.76,3.22s-3.81,1.23-5.93,1.23-4.12-.43-5.77-1.28c-1.65-.86-2.92-2.06-3.8-3.6-.88-1.54-1.32-3.34-1.32-5.39,0-.7,.08-1.58,.25-2.64,.43-2.51,1.37-4.74,2.8-6.71,1.43-1.97,3.23-3.5,5.37-4.59s4.47-1.65,6.98-1.65c3.04,0,5.48,.74,7.33,2.21,1.84,1.47,2.85,3.51,3.02,6.11h-6.8c-.31-.84-.86-1.49-1.65-1.94-.78-.45-1.74-.67-2.88-.67-2,0-3.72,.66-5.15,1.97-1.44,1.32-2.35,3.07-2.73,5.26-.12,.72-.18,1.35-.18,1.88,0,1.79,.52,3.16,1.55,4.12Z"/></g><g><polygon class="d" points="1057.47 359.08 1063.8 359.08 1062.32 349.67 1057.47 359.08"/><path class="d" d="M1086.55,348.15h-2.97l-2.6,14.83h2.93c2.34,0,4.28-.65,5.82-1.95,1.54-1.3,2.51-3.12,2.89-5.46,.12-.72,.18-1.33,.18-1.81,0-1.78-.54-3.17-1.63-4.14-1.09-.98-2.63-1.47-4.63-1.47Z"/><path class="d" d="M979.27,332.96l-11.58,43.07h449.36l11.58-43.07h-449.36Zm33.19,35.31l-.72-4.49h-9.48l-2.32,4.49h-6.48l13.67-25.4h7.16l4.7,25.4h-6.55Zm28.47-2.19c-2.44,1.58-5.16,2.37-8.18,2.37-2.17,0-4.06-.42-5.68-1.27-1.62-.84-2.86-2.04-3.73-3.58-.87-1.54-1.3-3.34-1.3-5.39,0-.92,.08-1.81,.25-2.68,.43-2.51,1.37-4.74,2.8-6.71,1.43-1.97,3.21-3.5,5.34-4.59s4.41-1.65,6.87-1.65c3.01,0,5.46,.8,7.33,2.39s2.92,3.76,3.17,6.51h-6.8c-.31-1.04-.89-1.83-1.72-2.37s-1.85-.81-3.06-.81c-1.91,0-3.56,.66-4.96,1.97-1.4,1.32-2.29,3.07-2.68,5.26-.12,.68-.18,1.27-.18,1.77,0,1.69,.47,3.03,1.41,4.01,.94,.99,2.23,1.48,3.87,1.48,1.18,0,2.29-.28,3.31-.83,1.02-.55,1.89-1.35,2.59-2.39h6.8c-1.21,2.75-3.03,4.92-5.46,6.49Zm24.31,2.19l-.72-4.49h-9.48l-2.32,4.49h-6.48l13.67-25.4h7.16l4.7,25.4h-6.55Zm33.68-12.7c-.43,2.48-1.37,4.69-2.8,6.62s-3.26,3.42-5.46,4.49c-2.21,1.06-4.64,1.59-7.29,1.59h-9.51l4.49-25.4h9.51c2.34,0,4.36,.42,6.06,1.25s3,2,3.91,3.51c.91,1.51,1.36,3.27,1.36,5.3,0,.7-.08,1.58-.25,2.64Zm16.93,7.81l-.87,4.88h-15.56l4.49-25.4h15.56l-.87,4.88h-9.37l-.91,5.28h8.29l-.83,4.67h-8.29l-1.01,5.68h9.37Zm25,4.88l2.71-15.23-8.39,15.23h-4.99l-3.04-15.3-2.68,15.3h-6.19l4.49-25.4h7.31l4.05,17.58,10.13-17.58h7.27l-4.49,25.4h-6.19Zm16.1,0h-6.19l4.49-25.4h6.19l-4.49,25.4Zm12.52-6.95c.94,.99,2.23,1.48,3.87,1.48,1.18,0,2.29-.28,3.31-.83,1.02-.55,1.89-1.35,2.59-2.39h6.8c-1.21,2.75-3.03,4.92-5.46,6.49-2.44,1.58-5.16,2.37-8.18,2.37-2.17,0-4.06-.42-5.68-1.27-1.62-.84-2.86-2.04-3.73-3.58-.87-1.54-1.3-3.34-1.3-5.39,0-.92,.08-1.81,.25-2.68,.43-2.51,1.37-4.74,2.8-6.71,1.43-1.97,3.21-3.5,5.34-4.59s4.41-1.65,6.87-1.65c3.01,0,5.46,.8,7.33,2.39s2.92,3.76,3.17,6.51h-6.8c-.31-1.04-.89-1.83-1.72-2.37s-1.85-.81-3.06-.81c-1.91,0-3.56,.66-4.96,1.97-1.4,1.32-2.29,3.07-2.68,5.26-.12,.68-.18,1.27-.18,1.77,0,1.69,.47,3.03,1.41,4.01Zm42.15,2.06l-.87,4.88h-15.56l4.49-25.4h15.56l-.87,4.88h-9.37l-.91,5.28h8.29l-.83,4.67h-8.29l-1.01,5.68h9.37Zm17.98,4.88l-3.8-7.78-5.93,7.78h-7.02l10.42-12.92-6.11-12.48h7.2l3.76,7.67,5.82-7.67h7.02l-10.35,12.81,6.19,12.59h-7.2Zm18.34-6.95c.94,.99,2.23,1.48,3.87,1.48,1.18,0,2.29-.28,3.31-.83,1.02-.55,1.89-1.35,2.59-2.39h6.8c-1.21,2.75-3.03,4.92-5.46,6.49-2.44,1.58-5.16,2.37-8.18,2.37-2.17,0-4.06-.42-5.68-1.27-1.62-.84-2.86-2.04-3.73-3.58-.87-1.54-1.3-3.34-1.3-5.39,0-.92,.08-1.81,.25-2.68,.43-2.51,1.37-4.74,2.8-6.71,1.43-1.97,3.21-3.5,5.34-4.59s4.41-1.65,6.87-1.65c3.01,0,5.46,.8,7.33,2.39s2.92,3.76,3.17,6.51h-6.8c-.31-1.04-.89-1.83-1.72-2.37s-1.85-.81-3.06-.81c-1.91,0-3.56,.66-4.96,1.97-1.4,1.32-2.29,3.07-2.68,5.26-.12,.68-.18,1.27-.18,1.77,0,1.69,.47,3.03,1.41,4.01Zm34.51,2.06l-.87,4.88h-15.56l4.49-25.4h15.56l-.87,4.88h-9.37l-.91,5.28h8.29l-.83,4.67h-8.29l-1.01,5.68h9.37Zm16.71,4.88h-14.29l4.49-25.4h6.19l-3.65,20.69h8.1l-.83,4.7Zm16.53,0h-14.29l4.49-25.4h6.19l-3.65,20.69h8.1l-.83,4.7Zm18.67-4.88l-.87,4.88h-15.56l4.49-25.4h15.56l-.87,4.88h-9.37l-.91,5.28h8.29l-.83,4.67h-8.29l-1.01,5.68h9.37Zm25.14,4.88h-6.19l-7.56-15.66-2.79,15.66h-6.19l4.49-25.4h6.19l7.56,15.74,2.79-15.74h6.19l-4.49,25.4Zm12.52-6.95c.94,.99,2.23,1.48,3.87,1.48,1.18,0,2.29-.28,3.31-.83,1.02-.55,1.89-1.35,2.59-2.39h6.8c-1.21,2.75-3.03,4.92-5.46,6.49-2.44,1.58-5.16,2.37-8.18,2.37-2.17,0-4.06-.42-5.68-1.27-1.62-.84-2.86-2.04-3.73-3.58-.87-1.54-1.3-3.34-1.3-5.39,0-.92,.08-1.81,.25-2.68,.43-2.51,1.37-4.74,2.8-6.71,1.43-1.97,3.21-3.5,5.34-4.59s4.41-1.65,6.87-1.65c3.01,0,5.46,.8,7.33,2.39s2.92,3.76,3.17,6.51h-6.8c-.31-1.04-.89-1.83-1.72-2.37s-1.85-.81-3.06-.81c-1.91,0-3.56,.66-4.96,1.97-1.4,1.32-2.29,3.07-2.68,5.26-.12,.68-.18,1.27-.18,1.77,0,1.69,.47,3.03,1.41,4.01Zm37.26-13.57h-9.37l-.91,5.28h8.29l-.83,4.67h-8.29l-1.01,5.68h9.37l-.87,4.88h-15.56l4.49-25.4h15.56l-.87,4.88Z"/><polygon class="d" points="1004.69 359.08 1011.02 359.08 1009.53 349.67 1004.69 359.08"/></g><g><path class="e" d="M437.31,148.44c-.78,9.3-2.33,18.61-4.65,27.14l57.38,27.92-13.96,31.01-60.11-18.74c-5.43,10.08-9.67,17.19-16.64,25.72l41.87,47.3-24.04,23.26-48.85-39.54c-7.75,6.21-15.51,11.63-24.04,16.28l19.38,62.03-31.79,10.85-27.91-55.83c-10.08,3.1-20.94,5.43-31.79,6.98l-4.65,62.81-33.34-.78-5.43-62.03c-10.86-1.55-20.94-3.88-30.24-6.2l-31.01,55.83-30.24-13.95,20.93-58.93c-8.53-5.43-16.56-10.45-24.31-16.66l-51.67,39.14-21.71-25.59,42.65-44.2c-6.2-7.75-12.41-17.06-17.06-25.59l-62.03,18.61-10.86-31.79,56.6-27.14c-3.1-8.53-4.65-18.61-6.21-27.91L0,141.46v-15.51H75.21c0,96.92,78.32,176.01,175.24,176.01s176-79.09,176-176.01h75.21v15.51l-64.35,6.98Z"/><path class="e" d="M251.22,267.85c78.31,0,141.89-63.58,141.89-141.89h12.41c0,85.29-69.78,155.07-155.07,155.07S95.37,211.25,95.37,125.96h13.96c0,78.32,63.58,141.89,141.89,141.89"/><path class="e" d="M250.44,235.29c60.48,0,109.33-48.85,109.33-109.33h12.41c0,67.46-54.28,121.73-121.73,121.73s-121.73-54.28-121.73-121.73h12.41c0,60.48,48.85,109.33,109.33,109.33"/><path class="e" d="M114.75,136.04h41.09V7.33h-41.09V136.04Zm31.01-10.08h-20.16V18.96h20.16V125.96Z"/><path class="e" d="M395.44,18.96h-64.36v17.06h23.26V125.96h20.16V36.01h20.94V18.96Zm-10.86,29.46v87.62h-41.09V48.42h-24.04V7.33h86.84V48.42h-21.71Z"/><path class="e" d="M203.92,17.41h-21.71l-25.59,55.05,25.59,53.5,21.71,.78-25.59-54.28,25.59-55.05Zm15.51,118.63h-43.42l-30.24-63.58L176.01,7.33h43.42l-30.24,65.13,30.24,63.58Z"/><path class="e" d="M256.65,63.15h-20.16v62.8h20.16V63.15Zm-31.01-11.63h41.09v84.52h-41.09V51.52Z"/><path class="e" d="M302.61,63.15h-19.03v62.8h19.03V63.15Zm-30.46-11.63h41.11v84.52h-41.11V51.52Z"/><path class="e" d="M313.25,27.87c0,11.35-9.2,20.55-20.55,20.55s-20.55-9.2-20.55-20.55,9.2-20.55,20.55-20.55,20.55,9.2,20.55,20.55"/><path class="e" d="M266.73,27.87c0,11.35-9.2,20.55-20.55,20.55s-20.55-9.2-20.55-20.55,9.2-20.55,20.55-20.55,20.55,9.2,20.55,20.55"/></g><g><path class="d" d="M641.87,377.53c-.83,0-1.5-.67-1.5-1.5v-7.56c0-.83,.67-1.5,1.5-1.5s1.5,.67,1.5,1.5v7.56c0,.83-.67,1.5-1.5,1.5Z"/><path class="d" d="M641.87,358.33c-.83,0-1.5-.67-1.5-1.5v-15.12c0-.83,.67-1.5,1.5-1.5s1.5,.67,1.5,1.5v15.12c0,.83-.67,1.5-1.5,1.5Zm0-26.75c-.83,0-1.5-.67-1.5-1.5v-15.12c0-.83,.67-1.5,1.5-1.5s1.5,.67,1.5,1.5v15.12c0,.83-.67,1.5-1.5,1.5Zm0-26.75c-.83,0-1.5-.67-1.5-1.5v-15.12c0-.83,.67-1.5,1.5-1.5s1.5,.67,1.5,1.5v15.12c0,.83-.67,1.5-1.5,1.5Zm0-26.75c-.83,0-1.5-.67-1.5-1.5v-15.12c0-.83,.67-1.5,1.5-1.5s1.5,.67,1.5,1.5v15.12c0,.83-.67,1.5-1.5,1.5Zm0-26.75c-.83,0-1.5-.67-1.5-1.5v-15.12c0-.83,.67-1.5,1.5-1.5s1.5,.67,1.5,1.5v15.12c0,.83-.67,1.5-1.5,1.5Zm0-26.75c-.83,0-1.5-.67-1.5-1.5v-15.12c0-.83,.67-1.5,1.5-1.5s1.5,.67,1.5,1.5v15.12c0,.83-.67,1.5-1.5,1.5Zm0-26.75c-.83,0-1.5-.67-1.5-1.5v-15.12c0-.83,.67-1.5,1.5-1.5s1.5,.67,1.5,1.5v15.12c0,.83-.67,1.5-1.5,1.5Zm0-26.75c-.83,0-1.5-.67-1.5-1.5v-15.12c0-.83,.67-1.5,1.5-1.5s1.5,.67,1.5,1.5v15.12c0,.83-.67,1.5-1.5,1.5Zm0-26.75c-.83,0-1.5-.67-1.5-1.5v-15.12c0-.83,.67-1.5,1.5-1.5s1.5,.67,1.5,1.5v15.12c0,.83-.67,1.5-1.5,1.5Zm0-26.75c-.83,0-1.5-.67-1.5-1.5v-15.12c0-.83,.67-1.5,1.5-1.5s1.5,.67,1.5,1.5v15.12c0,.83-.67,1.5-1.5,1.5Zm0-26.75c-.83,0-1.5-.67-1.5-1.5v-15.12c0-.83,.67-1.5,1.5-1.5s1.5,.67,1.5,1.5v15.12c0,.83-.67,1.5-1.5,1.5Zm0-26.75c-.83,0-1.5-.67-1.5-1.5v-15.12c0-.83,.67-1.5,1.5-1.5s1.5,.67,1.5,1.5v15.12c0,.83-.67,1.5-1.5,1.5Zm0-26.75c-.83,0-1.5-.67-1.5-1.5v-15.12c0-.83,.67-1.5,1.5-1.5s1.5,.67,1.5,1.5v15.12c0,.83-.67,1.5-1.5,1.5Z"/><path class="d" d="M641.87,10.56c-.83,0-1.5-.67-1.5-1.5V1.5c0-.83,.67-1.5,1.5-1.5s1.5,.67,1.5,1.5v7.56c0,.83-.67,1.5-1.5,1.5Z"/></g></g></g></g></svg>